<?xml version="1.0" encoding="UTF-8"?>
<svg version="1.1" xmlns="http://www.w3.org/2000/svg" width="1024" height="1024">
<path d="M0 0 C1.3181223 0.678426 2.63848403 1.35251686 3.9609375 2.02246094 C35.51025986 18.01705729 65.27463082 38.80918612 91.37890625 62.67333984 C92.78963948 63.9496159 94.20673627 65.2194603 95.65258789 66.45581055 C101.21220725 71.21988412 106.41617388 76.31133168 111.5793457 81.49731445 C113.02118971 82.9445212 114.46830866 84.3862976 115.91601562 85.82763672 C121.14372163 91.05131405 126.17571187 96.37715084 130.9609375 102.00927734 C131.81816406 102.98509766 132.67539062 103.96091797 133.55859375 104.96630859 C192.79952336 173.59565811 226.41514453 262.00507137 232.2734375 352.07177734 C232.40637207 353.98349731 232.40637207 353.98349731 232.54199219 355.93383789 C233.31668411 369.7655317 232.46191676 382.981858 231.9609375 397.00927734 C167.6109375 397.00927734 103.2609375 397.00927734 36.9609375 397.00927734 C35.72399075 388.96912346 34.55879203 381.03615004 33.7434082 372.96069336 C33.63718706 371.93561141 33.53096592 370.91052946 33.42152596 369.85438442 C33.07365192 366.49094659 32.73023614 363.12706891 32.38671875 359.76318359 C32.13975716 357.36991851 31.89244001 354.9766901 31.64479065 352.58349609 C31.12176329 347.52547454 30.60035889 342.4672897 30.08026123 337.40896606 C28.7366477 324.34762039 27.37898837 311.28773219 26.01953125 298.22802734 C25.88623665 296.94708254 25.75294205 295.66613773 25.61560822 294.34637642 C23.4357143 273.41236606 21.19971216 252.48582951 18.8359375 231.57177734 C18.69813873 230.34274689 18.56033997 229.11371643 18.41836548 227.84744263 C18.03815291 224.46471536 17.65311545 221.08258406 17.265625 217.70068359 C17.16093399 216.7715918 17.05624298 215.8425 16.94837952 214.88525391 C14.84640167 195.33923731 14.84640167 195.33923731 3.98046875 179.47802734 C-5.55615013 172.54230452 -16.68589572 172.86802863 -27.9375 172.94677734 C-29.78355331 172.95245728 -29.78355331 172.95245728 -31.66690063 172.95825195 C-36.25095298 172.97251492 -40.83493368 172.99592944 -45.41894531 173.01965332 C-49.9251223 173.0424423 -54.43128834 173.05784767 -58.9375 173.07177734 C-60.13531097 173.08007568 -61.33312195 173.08837402 -62.56723022 173.09692383 C-63.66572296 173.10022705 -64.7642157 173.10353027 -65.89599609 173.10693359 C-66.86749603 173.11217041 -67.83899597 173.11740723 -68.8399353 173.12280273 C-71.0390625 173.00927734 -71.0390625 173.00927734 -72.0390625 172.00927734 C-72.2173706 170.15315445 -72.38919871 168.2962235 -72.53173828 166.43701172 C-74.9678216 136.08060502 -85.37691459 108.07456141 -104.0390625 84.00927734 C-104.72613281 83.10564453 -105.41320312 82.20201172 -106.12109375 81.27099609 C-121.67288728 61.45997262 -143.62042158 47.26504302 -168.0390625 41.00927734 C-169.01875 40.71150391 -169.9984375 40.41373047 -171.0078125 40.10693359 C-187.59341186 35.65263278 -207.6000502 36.21055042 -224.0390625 41.00927734 C-225.27269531 41.36119141 -226.50632812 41.71310547 -227.77734375 42.07568359 C-257.95963717 51.17393528 -280.46511557 71.81670917 -297.0390625 98.00927734 C-297.69261719 99.03408203 -298.34617187 100.05888672 -299.01953125 101.11474609 C-311.19677934 121.03382079 -316.69935531 144.23703599 -318.57519531 167.30493164 C-318.66279114 168.37599655 -318.75038696 169.44706146 -318.84063721 170.55058289 C-318.93885773 171.76763664 -318.93885773 171.76763664 -319.0390625 173.00927734 C-320.06358017 172.99928459 -320.06358017 172.99928459 -321.10879517 172.98908997 C-327.60892469 172.92847696 -334.10897306 172.88305171 -340.6093235 172.85384083 C-343.94968092 172.83831714 -347.28962371 172.81565421 -350.62988281 172.78295898 C-354.48769149 172.74616986 -358.34517162 172.72945847 -362.203125 172.71630859 C-363.96494614 172.69308281 -363.96494614 172.69308281 -365.76235962 172.66938782 C-377.29282477 172.66709621 -390.39523655 173.50744443 -399.0390625 182.00927734 C-404.4992426 189.26200037 -407.0754383 196.65676215 -408.13476562 205.62597656 C-408.22785507 206.37612659 -408.32094452 207.12627663 -408.41685486 207.89915848 C-408.72550667 210.41157994 -409.02356216 212.92511139 -409.3203125 215.43896484 C-409.42666519 216.32445889 -409.53301788 217.20995293 -409.64259338 218.12228012 C-412.53167618 242.22218664 -414.84648433 266.38260153 -417.19012451 290.54034424 C-418.11622983 300.07888885 -419.050167 309.61666702 -419.98536682 319.15432358 C-420.30015508 322.37345335 -420.61219306 325.5928383 -420.92370605 328.81228638 C-423.1449812 351.56256705 -425.6205946 374.27567905 -428.0390625 397.00927734 C-492.3890625 397.00927734 -556.7390625 397.00927734 -623.0390625 397.00927734 C-634.88419016 314.09338374 -601.10797604 216.05439695 -556.31738281 147.953125 C-555.17943139 146.22272599 -554.05732638 144.48192951 -552.9375 142.73974609 C-542.80061522 127.15897875 -531.19935311 112.45551785 -518.59375 98.81005859 C-516.66660401 96.6972701 -514.79745755 94.56231809 -512.9375 92.39208984 C-508.59551269 87.41701807 -503.95617173 82.7403224 -499.28857422 78.07348633 C-497.80013013 76.58286119 -496.31988973 75.08440717 -494.83984375 73.58544922 C-488.56562807 67.27487202 -482.00376393 61.56196679 -475.0390625 56.00927734 C-473.94916371 55.08598251 -472.8645348 54.15636819 -471.7890625 53.21630859 C-392.03851136 -16.22557756 -286.80269949 -48.57950046 0 0 Z " fill="#000000" transform="translate(708.0390625,135.99072265625)"/>
<path d="M0 0 C2.76066966 2.18814442 5.35871559 4.46786464 7.9375 6.8671875 C8.86175781 7.71152344 9.78601563 8.55585938 10.73828125 9.42578125 C32.12517835 29.80693215 42.35274114 57.02822084 45.9375 85.8671875 C45.9375 87.1871875 45.9375 88.5071875 45.9375 89.8671875 C-15.7725 89.8671875 -77.4825 89.8671875 -141.0625 89.8671875 C-139.87631277 74.44675353 -139.87631277 74.44675353 -138.375 67.4921875 C-138.20129883 66.68620117 -138.02759766 65.88021484 -137.84863281 65.04980469 C-133.44123301 45.71682566 -123.84008553 28.81309058 -111.0625 13.8671875 C-110.47984375 13.18140625 -109.8971875 12.495625 -109.296875 11.7890625 C-81.28083354 -18.4909015 -33.6016824 -23.40117167 0 0 Z " fill="#000000" transform="translate(560.0625,219.1328125)"/>
<path d="M0 0 C51.81 0 103.62 0 157 0 C150 52 150 52 149 59 C148.08586452 75.92908585 150.91718506 90.98570541 162.1875 104.3125 C172.5407481 115.06262261 185.39844497 120.17447615 200.2015934 120.50057125 C203.27950867 120.53583841 206.35576353 120.52067903 209.43374634 120.50120544 C211.1573232 120.50510603 212.88089684 120.51075251 214.60446298 120.51797634 C219.30423741 120.53263989 224.00367367 120.52260432 228.70343685 120.50823963 C233.78596527 120.49708179 238.8684481 120.50908822 243.95097351 120.51808167 C253.89267501 120.53198286 263.83424911 120.5244813 273.77594449 120.50940608 C285.36166814 120.49250935 296.94736038 120.49576082 308.53309254 120.49950016 C329.2082853 120.5053729 349.88341707 120.49122949 370.55859375 120.46655273 C390.60646856 120.44262749 410.65426192 120.43555167 430.70214844 120.44604492 C452.55263847 120.45746124 474.40309087 120.45937583 496.25358045 120.44494683 C498.58462548 120.44342104 500.91567051 120.44190068 503.24671555 120.44038582 C504.39353115 120.439628 505.54034676 120.43887019 506.72191436 120.43808941 C514.79209966 120.4333526 522.86226812 120.4351937 530.93245316 120.43945122 C540.76965733 120.44438423 550.60678459 120.43836497 560.44397117 120.41855692 C565.46015205 120.40870425 570.47621596 120.40355797 575.49240303 120.41144943 C580.08901167 120.41853274 584.68538484 120.41163988 589.28196256 120.3938458 C590.93988481 120.3898185 592.59782871 120.39077214 594.25574274 120.39736467 C611.46686662 120.45991697 626.02908999 117.41969065 638.93359375 105.25390625 C650.75292436 92.3621222 653.54198526 76.9283575 653 60 C652.57184263 55.34651489 651.92682184 50.73645819 651.25 46.11328125 C651.07243164 44.84904831 650.89486328 43.58481537 650.71191406 42.28227234 C650.24478012 38.96632177 649.77018877 35.6516306 649.29150391 32.33734131 C648.61446648 27.63451119 647.95271175 22.9294959 647.28808594 18.22489929 C646.93448087 15.72829549 646.57843457 13.23203601 646.21972656 10.73616028 C646.05956055 9.61706772 645.89939453 8.49797516 645.734375 7.3449707 C645.59225586 6.35825882 645.45013672 5.37154694 645.30371094 4.35493469 C645 2 645 2 645 0 C697.14 0 749.28 0 803 0 C799.61978805 11.26737318 799.61978805 11.26737318 798.01953125 15.0078125 C797.66439453 15.84086914 797.30925781 16.67392578 796.94335938 17.53222656 C796.38358398 18.81564941 796.38358398 18.81564941 795.8125 20.125 C795.41740234 21.03733398 795.02230469 21.94966797 794.61523438 22.88964844 C791.32554745 30.40855687 787.79748626 37.77583619 784.00927734 45.05517578 C782.97937685 47.03973973 781.96785897 49.03300798 780.95703125 51.02734375 C769.38235417 73.62641323 755.18156223 94.68711041 739.25976562 114.43603516 C738.07765949 115.90358785 736.90565059 117.37925762 735.734375 118.85546875 C730.29273364 125.6379462 724.47602218 132.00614973 718.53515625 138.34716797 C717.03856185 139.95848223 715.56313248 141.58652475 714.09375 143.22265625 C704.09498698 154.31703558 693.32395066 164.55931097 681.64453125 173.87890625 C678.88123798 176.09525521 676.19443786 178.38809729 673.5 180.6875 C652.89097139 197.857247 630.28062367 211.79299952 607 225 C606.24251465 225.43054688 605.4850293 225.86109375 604.70458984 226.3046875 C552.62165952 255.62362632 492.42293499 271.92064775 433 276 C431.81615723 276.08677002 431.81615723 276.08677002 430.60839844 276.17529297 C360.85812534 281.22596809 288.04291552 268.13168755 224.76269531 238.29833984 C222.0693966 237.03261321 219.36189424 235.80383636 216.6484375 234.58203125 C196.10565328 225.21449104 176.62883544 213.44803405 158.0625 200.625 C157.37994141 200.15368652 156.69738281 199.68237305 155.99414062 199.19677734 C141.46902334 189.11291546 127.41570235 178.18536746 114.40625 166.1953125 C113.0612702 164.96823677 111.70799527 163.74960073 110.32592773 162.56445312 C104.8123738 157.83395121 99.6271832 152.81336609 94.49145508 147.67675781 C93.07331716 146.26080053 91.64703335 144.85301711 90.22070312 143.4453125 C84.03695378 137.27445492 78.44716026 130.82276089 73 124 C72.04105602 122.86367474 71.0761122 121.73234496 70.1015625 120.609375 C46.95237581 93.88192285 0 36.72786051 0 0 Z " fill="#000000" transform="translate(111,659)"/>
</svg>
